<?xml version="1.0" encoding="utf-8"?>
<!-- Generator: Adobe Illustrator 21.0.2, SVG Export Plug-In . SVG Version: 6.00 Build 0)  -->
<svg version="1.1"
	 id="svg2" inkscape:output_extension="org.inkscape.output.svg.inkscape" inkscape:version="0.46dev+devel" sodipodi:docname="aledone_pirate.svg" sodipodi:version="0.32" xmlns:cc="http://web.resource.org/cc/" xmlns:dc="http://purl.org/dc/elements/1.1/" xmlns:inkscape="http://www.inkscape.org/namespaces/inkscape" xmlns:ns1="http://sozi.baierouge.fr" xmlns:rdf="http://www.w3.org/1999/02/22-rdf-syntax-ns#" xmlns:sodipodi="http://sodipodi.sourceforge.net/DTD/sodipodi-0.dtd" xmlns:svg="http://www.w3.org/2000/svg"
	 xmlns="http://www.w3.org/2000/svg" xmlns:xlink="http://www.w3.org/1999/xlink" x="0px" y="0px" viewBox="0 0 308.8 271.6"
	 style="enable-background:new 0 0 308.8 271.6;" xml:space="preserve">
<style type="text/css">
	.st0{fill:#FFFFFF;}
</style>
<sodipodi:namedview  bordercolor="#666666" borderopacity="1.0" gridtolerance="10.0" guidetolerance="10.0" id="base" inkscape:current-layer="svg2" inkscape:cx="154.401" inkscape:cy="135.79401" inkscape:pageopacity="0.0" inkscape:pageshadow="2" inkscape:window-height="601" inkscape:window-width="676" inkscape:window-x="22" inkscape:window-y="24" inkscape:zoom="1.5096395" objecttolerance="10.0" pagecolor="#ffffff">
	</sodipodi:namedview>
<path id="path13" class="st0" d="M127.6,48.2c-0.4,0.5-0.6,1.2-0.6,1.9c0,1.9,1.5,3.5,3.4,3.6c1.9,0.1,3.5-1.2,3.6-3
	c-0.8,0-1.7-0.1-2.6-0.4C129.8,49.8,128.5,49,127.6,48.2z M142,50.2c-0.9,0.2-1.8,0.4-2.6,0.4c0.1,1.8,1.6,3.2,3.6,3
	c1.9-0.1,3.5-1.7,3.4-3.6c0-0.7-0.2-1.3-0.6-1.9C144.9,49,143.6,49.8,142,50.2z M287.7,90.2c-11.4,3.4-27.1,5.8-42.8,0.5
	c-17.8-6-31.5-20.6-40.9-43.4C186.8,5,158.1-0.5,142.6,0c-22.1,0.7-41.1,13.8-45.1,25.7c-7.7,22.9-57.2,39.4-72.1,43.9
	C162.8,143.1,253.5,109.5,287.7,90.2L287.7,90.2z M151,53.1c-0.1,2.7-0.9,5.2-2.5,7.3l7.4,5.8c0.7-0.6,1.6-1,2.6-0.9
	c2,0.1,3.6,1.8,3.5,3.8c0,1.8-1.4,3.2-3.1,3.3c-0.2,1.8-1.8,3.2-3.6,3.1c-2-0.1-3.6-1.8-3.5-3.8c0-0.8,0.3-1.5,0.7-2l-7.2-5.6
	c-0.2,5.6-3.8,10-8.1,9.7c-4.3-0.3-7.8-5-7.8-10.6c-0.3-0.2-0.6-0.4-0.9-0.7l-7.7,6.1c0.4,0.6,0.6,1.3,0.6,2c0,2-1.7,3.5-3.7,3.3
	c-1.8-0.1-3.3-1.5-3.5-3.3c0,0,0,0-0.1,0c-2-0.1-3.6-1.8-3.5-3.8c0-2,1.7-3.5,3.6-3.3c1.1,0.1,2.1,0.6,2.7,1.5l8.1-6.4
	c-1.3-2.1-2-4.6-2-7.2c0-1.4,0.3-2.8,0.7-4L113.1,39c-0.6,1.2-1.8,2.1-3.3,2c-2-0.1-3.6-1.8-3.5-3.8c0-2,1.7-3.5,3.7-3.3
	c0.2,0,0.4,0,0.5,0.1c-0.1-0.4-0.2-0.7-0.2-1.1c0-2,1.7-3.5,3.7-3.3c2,0.1,3.6,1.8,3.5,3.8c0,0.9-0.3,1.6-0.9,2.2l9.8,7.6
	c2.6-2.9,6.6-4.6,10.9-4.3c3.2,0.2,6.1,1.4,8.5,3.3l7.9-6.3c-0.5-0.7-0.8-1.5-0.8-2.3c0-2,1.7-3.5,3.6-3.3c1.9,0.1,3.4,1.7,3.5,3.5
	c1.6,0.4,2.9,1.9,2.8,3.7c0,2-1.7,3.5-3.6,3.3c-0.9-0.1-1.6-0.4-2.2-0.9l-7.8,6.2C150.3,48.1,151,50.5,151,53.1L151,53.1z
	 M119.2,118c0-3.1-1-6-2.6-8.4c-6-1.5-12.1-3.2-18.2-5.1c-5.2,2.3-8.8,7.5-8.8,13.6c0,8.2,6.6,14.8,14.8,14.8
	C112.6,132.8,119.2,126.2,119.2,118z M308.7,201.9c-3.3-3.3-53.1-60.9-53.1-60.9l29.9-10l-36.3-20.9c-5.5,1.6-11.5,3-17.8,4.3
	c-1,0.2-2,0.4-3,0.5c-1.3,8.7-5.4,20.6-17.2,31.2l-13.5-12.3c3.9-4.1,7-9.2,8.8-15c0.1-0.3,0.2-0.7,0.3-1.1c-20.9,1.7-42.6,0.8-65-3
	c-0.9-0.2-1.8-0.3-2.7-0.5c1.6,13.4,10.4,25.1,23.6,29.2c11.4,3.5,23.3,0.6,32.1-6.9l13.3,12.1c-10.4,8.2-25.9,15.4-48.9,19.3
	c-3.8,11.1-14.7,19.1-27.7,19.1c-13.3,0-24.6-8.5-28-20.1c-27.1-7.7-39.4-26.3-45-40.1L0,182l46.5,15.5L34.3,234l50.9-7.7l6.6,24.3
	l23.2-31l35.4,52l12.2-47.6l68.6,22.1l-16.6-52C214.7,194.1,312,205.2,308.7,201.9L308.7,201.9z M134.9,207.7
	c0,0,47.5-31.7,75.4-28.9L134.9,207.7z M80.3,123.2c0,11.9,9.6,21.5,21.5,21.5c8.7,0,16.2-5.2,19.6-12.6c-3.9,5.6-10.3,9.2-17.6,9.2
	c-11.9,0-21.5-9.6-21.5-21.5c0-3.2,0.7-6.2,1.9-8.9C81.8,114.4,80.3,118.7,80.3,123.2z"/>
</svg>
